<svg width="34" height="34" viewBox="0 0 34 34" fill="none" xmlns="http://www.w3.org/2000/svg">
<rect x="2" y="2" width="30" height="30" rx="15" fill="#605DEC"/>
<rect x="3" y="3" width="28" height="28" rx="14" stroke="#605DEC" stroke-width="2"/>
<path d="M10.5583 10.7233L10.6361 10.636C10.9987 10.2734 11.5705 10.2475 11.963 10.5583L12.0503 10.636L17 15.5858L21.9498 10.636C22.3124 10.2734 22.8842 10.2475 23.2768 10.5583L23.364 10.636C23.7266 10.9987 23.7525 11.5705 23.4417 11.963L23.364 12.0503L18.4142 17L23.364 21.9497C23.7266 22.3124 23.7525 22.8842 23.4417 23.2767L23.364 23.364C23.0013 23.7266 22.4295 23.7525 22.037 23.4417L21.9498 23.364L17 18.4142L12.0503 23.364C11.6876 23.7266 11.1158 23.7525 10.7233 23.4417L10.6361 23.364C10.2734 23.0013 10.2475 22.4295 10.5583 22.037L10.6361 21.9497L15.5858 17L10.6361 12.0503C10.2734 11.6876 10.2475 11.1158 10.5583 10.7233L10.6361 10.636L10.5583 10.7233Z" fill="white"/>
</svg>
