<svg width="25" height="22" viewBox="0 0 25 22" fill="none" xmlns="http://www.w3.org/2000/svg">
<path fill-rule="evenodd" clip-rule="evenodd" d="M3.15162 3.06868L4.33534 9.87506H11.6391C12.2604 9.87506 12.7641 10.3787 12.7641 11.0001C12.7641 11.6214 12.2604 12.1251 11.6391 12.1251H4.33534L3.15162 18.9314L21.6582 11.0001L3.15162 3.06868ZM2.24722 11.0001L0.859611 3.02131C0.747434 2.37629 0.956147 1.71703 1.41909 1.25408C2.00077 0.672412 2.87799 0.503468 3.63409 0.827513L23.7376 9.4433C24.3603 9.7102 24.7641 10.3225 24.7641 11.0001C24.7641 11.6776 24.3603 12.2899 23.7376 12.5568L3.63409 21.1726C2.87799 21.4967 2.00077 21.3277 1.41909 20.7461C0.956147 20.2831 0.747434 19.6238 0.859611 18.9788L2.24722 11.0001Z" fill="#BDBDBD"/>
</svg>
